# Blender v2.93.3 OBJ File: ''
# www.blender.org
mtllib cube2.mtl
o cube
v -0.224747 -0.224747 -0.224748
v 0.224747 0.224748 -0.224747
v 0.224747 -0.224747 -0.224748
v -0.224747 0.224748 -0.224747
v -0.224747 0.224747 0.224748
v -0.224747 -0.224748 0.224747
v 0.224747 0.224747 0.224748
v 0.224747 -0.224748 0.224747
vt 0.250000 0.750000
vt 0.500000 1.000000
vt 0.500000 0.750000
vt 0.250000 1.000000
vt 0.000000 0.500000
vt 0.250000 0.250000
vt 0.000000 0.250000
vt 0.250000 0.500000
vt 0.250000 0.000000
vt 0.500000 0.250000
vt 0.500000 0.000000
vt 0.750000 0.500000
vt 0.750000 0.250000
vt 0.500000 0.500000
vn 0.0000 0.0000 -1.0000
vn -1.0000 -0.0000 0.0000
vn 0.0000 1.0000 0.0000
vn 1.0000 -0.0000 0.0000
vn 0.0000 -1.0000 -0.0000
vn 0.0000 -0.0000 1.0000
usemtl Default_OBJ
s 1
f 1/1/1 2/2/1 3/3/1
f 1/1/1 4/4/1 2/2/1
f 1/5/2 5/6/2 4/7/2
f 1/5/2 6/8/2 5/6/2
f 4/9/3 7/10/3 2/11/3
f 4/9/3 5/6/3 7/10/3
f 3/12/4 2/13/4 7/10/4
f 3/12/4 7/10/4 8/14/4
f 1/1/5 3/3/5 8/14/5
f 1/1/5 8/14/5 6/8/5
f 6/8/6 8/14/6 7/10/6
f 6/8/6 7/10/6 5/6/6
